<svg width="100%" height="100%" viewBox="0 0 300 500"
xmlns="http://www.w3.org/2000/svg"
     xmlns:xlink="http://www.w3.org/1999/xlink" >
     <rect x="1" y="1" width="298" height="498"
     fill="#333" stroke="#333"
     stroke-width="2"/>

     <path d="M15,15 15,485 285,485 285,15 z"
     stroke="gold" fill="#1B62A3" stroke-width="2"
     />
    <path d="M40,40 40,460 260,460 260,40 z"
     stroke="gold" fill="#222" stroke-width="1"
     />
    <path d="M36,36 36,464 264,464 264,36 z"
     stroke="gold" fill="none" stroke-width="2"
     />
   
     <path d="M149,31 35,250 149,469 265,249  z"
     stroke="gold" fill="#144C7F" stroke-width="1"/>
  <path d="M149,40 40,250 149,460 260,249 z"
     stroke="gold" fill="none" stroke-width="2"/>

<g fill="#144C7F" stroke="gold" stroke-width="2" >
    <circle cx="27.5" cy="27.5" r="22" />
    <circle cx="27.5" cy="472.5" r="22"/>
    <circle cx="272.5" cy="472.5" r="22"/>
    <circle cx="272.5" cy="27.5" r="22"/>
</g>
  <g class="outereye" fill=" #1C78CB" stroke="gold" stroke-width="2">
<path d="M290.5,27.5   277,20.5   268,20.5   254.5,27.5   268,34.5    277,34.5 z"  />
<path d="M9.5,27.5     23,20.5    32,20.5    45.5,27.5    32,34.5     23,34.5 z" />
<path d="M45.5,472.5   32,479.5   23,479.5   9.5,472.5    23,465.5    32,465.5 z"  />
<path d="M254.5,472.5  268,479.5  277,479.5  290.5,472.5  277,465.5   268,465.5 z"  />
  </g>
<g class="eyeball" fill="#BA4A00" stroke="gold" stroke-width="2" >
    <circle cx="27.5" cy="27.5" r="8.5" />
    <circle cx="27.5" cy="472.5" r="8.5"/>
    <circle cx="272.5" cy="472.5" r="8.5"/>
    <circle cx="272.5" cy="27.5" r="8.5"/>
</g>
<g class="pupil" fill="#144C7F" stroke="gold" stroke-width="2" >
    <circle cx="27.5" cy="27.5" r="2" />
    <circle cx="27.5" cy="472.5" r="2"/>
    <circle cx="272.5" cy="472.5" r="2"/>
    <circle cx="272.5" cy="27.5" r="2"/>
</g>
    <text id="TextElement" x="0" y="0"
          font-family="Serif" font-size="10" visibility="hidden"  >
 &#223;&#203;&#258;&#x0015E;&#358;&#921;&#923;&#344;&#978;
      <set attributeName="visibility" to="visible"
           begin="3s" dur="6s" fill="freeze" />
      <animateMotion path="M 0 0 L 68 256"
           begin="3s" dur="6s" fill="freeze" />
      <animate attributeName="fill"
           from="rgb(128,0,0)" to="gold"
           begin="3s" dur="6s" fill="freeze" />
      <animateTransform attributeName="transform"
           type="rotate" from="-30" to="0"
           begin="3s" dur="6s" fill="freeze" />
      <animateTransform attributeName="transform"
           type="scale" from="1" to="3" additive="sum"
           begin="3s" dur="6s" fill="freeze" />
    </text>

    <text id="TextElement" x="0" y="0"
          font-family="Serif" font-size="5" visibility="hidden"  >
 	<!-- &#9758;hand -->
   a beginner's guide to monsters 
      <set attributeName="visibility" to="visible"
           begin="4s" dur="7s" fill="freeze" />
      <animateMotion path="M 0 0 L 60 278"
           begin="4s" dur="7s" fill="freeze" />
      <animate attributeName="fill"
           from="rgb(128,0,0)" to="#F5B041 "
           begin="4s" dur="7s" fill="freeze" />
      <animateTransform attributeName="transform"
           type="rotate" from="-30" to="0"
           begin="4s" dur="7s" fill="freeze" />
      <animateTransform attributeName="transform"
           type="scale" from="1" to="3" additive="sum"
           begin="4s" dur="7s" fill="freeze" />
    </text>

    <text id="TextElement" x="56" y="30" font-family="Serif" font-size="19" visibility="visible" fill="#12426D" >
		&#128769;&#128770;  &#128821;&#128832;&#128833;&#128773;&#128792;&#128843;&#128825;&#128782;  &#128771;&#128772;
     </text>
<text id="TextElement" x="55" y="-16.5" font-family="Serif" font-size="25" visibility="visible" fill="#12426D" transform="rotate(90)" >
&#10016; &#10038; &#10016; &#10038; &#10016; &#10038; &#10016; &#10038; &#10016; &#10016; &#10038; &#10016; &#10038; &#10016; &#10038; &#10016; &#10038; &#10016; 
</text> 
<text id="TextElement" x="55" y="-265.5" font-family="Serif" font-size="25" visibility="visible" fill="#12426D" transform="rotate(90)" >
&#10016; &#10038; &#10016; &#10038; &#10016; &#10038; &#10016; &#10038; &#10016; &#10016; &#10038; &#10016; &#10038; &#10016; &#10038; &#10016; &#10038; &#10016; 
</text> 
    <text id="TextElement" x="53.5" y="483.5" font-family="Serif" font-size="25" visibility="visible" fill="#12426D" >
   &#x16DE;&#5816;&#x16AC;&#x16C8;&#x16A9;&#x16E1;&#5859;&#5803;&#x16D7;&#5803;&#5860;&#5854;&#5828;
    </text>

     </svg>
