<svg id="Layer_1" data-name="Layer 1" xmlns="http://www.w3.org/2000/svg" viewBox="0 0 439.75 431.87"><defs><style>.cls-1{fill:#ef4823;}.cls-2{fill:#f1f2f2;}</style></defs><title>beastiary-logo</title><rect class="cls-1" width="439.75" height="431.87"/><path class="cls-2" d="M414.7,249.83h0a0,0,0,0,1,0,0v0a216.8,216.8,0,0,1-216.8,216.8h0a0,0,0,0,1,0,0v0a216.8,216.8,0,0,1,216.8-216.8Z" transform="translate(258.3 -187.57) rotate(45)"/><path class="cls-2" d="M413.3,114.5h0a0,0,0,0,1,0,0v0A216.8,216.8,0,0,1,196.5,331.3h0a0,0,0,0,1,0,0v0A216.8,216.8,0,0,1,413.3,114.5Z" transform="translate(162.19 -226.22) rotate(45)"/><circle class="cls-1" cx="221.58" cy="145.59" r="52.35"/><circle class="cls-1" cx="222.47" cy="281.58" r="52.35"/><polygon class="cls-2" points="142.92 213.22 67.92 163.73 67.92 262.71 142.92 213.22"/></svg>